<svg width="1600" height="806" viewBox="0 0 1600 806" fill="none" xmlns="http://www.w3.org/2000/svg">
<mask id="mask0_737_1483" style="mask-type:alpha" maskUnits="userSpaceOnUse" x="0" y="-1" width="1600" height="799">
<path d="M0 -0.000244141H1600V587L0 798V-0.000244141Z" fill="#172755"/>
</mask>
<g mask="url(#mask0_737_1483)">
<g opacity="0.07">
<path d="M1832.47 274.985C1702.93 85.9868 1485.44 -38 1239 -38C841.907 -38 520 283.907 520 681C520 738.771 526.814 794.95 539.681 848.779L905.824 482.636C940.922 447.538 997.828 447.538 1032.93 482.636L1328.88 778.585L1832.47 274.985Z" fill="#8794BA"/>
<path d="M1917.93 443.734L1392.43 969.239C1357.33 1004.34 1300.42 1004.34 1265.32 969.239L969.375 673.29L611.104 1031.56C734.1 1251.39 969.195 1400 1239 1400C1636.09 1400 1958 1078.09 1958 681C1958 597.861 1943.89 518.017 1917.93 443.734Z" fill="#8794BA"/>
</g>
</g>
</svg>
